<svg focusable="false" aria-hidden="true" fill="#455efc" xmlns="http://www.w3.org/2000/svg" width="24" height="24" viewBox="0 0 24 24"><g fill-rule="evenodd" stroke="none" stroke-width="1"><path d="M16.9996,3.9997 L18.0006,3.9997 L18.0006,6.0007 L20.0006,6.0007 L20.0006,7.0007 L18.0006,7.0007 L18.0006,8.9997 L16.9996,8.9997 L16.9996,7.0007 L14.9996,7.0007 L14.9996,6.0007 L16.9996,6.0007 L16.9996,3.9997 Z M19,16.5 L19,12 L20,12 L20,16.5 C20,17.879 18.878,19 17.5,19 L6.5,19 C5.122,19 4,17.879 4,16.5 L4,6.5 C4,5.121 5.122,4 6.5,4 L12,4 L12,5 L6.5,5 C5.673,5 5,5.673 5,6.5 L5,16.5 C5,17.327 5.673,18 6.5,18 L17.5,18 C18.327,18 19,17.327 19,16.5 Z M8,15 L8,8 L9,8 L9,15 L8,15 Z"></path></g></svg>