<svg viewBox="0 0 18 24" fill="none" xmlns="http://www.w3.org/2000/svg">
<path d="M11.2656 8.17969C11.2656 9.34375 11.1719 10.4922 10.9844 11.625C10.8047 12.75 10.5312 13.8711 10.1641 14.9883C9.98438 15.543 9.80859 16.0898 9.63672 16.6289C9.47266 17.168 9.29297 17.6953 9.09766 18.2109C8.91016 18.7188 8.69922 19.2109 8.46484 19.6875C8.23047 20.1641 7.95703 20.6172 7.64453 21.0469C7.33203 21.4766 6.96875 21.8867 6.55469 22.2773C6.14062 22.6602 5.65625 23.0117 5.10156 23.332C4.75 23.5352 4.38281 23.6992 4 23.8242C3.61719 23.9414 3.22266 24 2.81641 24C2.37891 24 2 23.9297 1.67969 23.7891C1.35938 23.6406 1.09375 23.4375 0.882812 23.1797C0.671875 22.9219 0.511719 22.6211 0.402344 22.2773C0.300781 21.9258 0.25 21.543 0.25 21.1289C0.25 20.6055 0.351562 20.0625 0.554688 19.5C0.757812 18.9375 1.02344 18.3945 1.35156 17.8711C1.67969 17.3477 2.05469 16.8672 2.47656 16.4297C2.89844 15.9922 3.32812 15.6367 3.76562 15.3633C3.82031 15.332 3.87109 15.3086 3.91797 15.293C3.96484 15.2695 4.01953 15.2578 4.08203 15.2578C4.12109 15.2578 4.20703 15.2852 4.33984 15.3398C4.47266 15.3867 4.625 15.4531 4.79688 15.5391C4.97656 15.6172 5.16797 15.707 5.37109 15.8086C5.57422 15.9023 5.76562 15.9961 5.94531 16.0898C6.13281 16.1758 6.30078 16.2578 6.44922 16.3359C6.59766 16.4062 6.70703 16.457 6.77734 16.4883C6.88672 16.5352 6.99219 16.5742 7.09375 16.6055C7.20312 16.6289 7.3125 16.6602 7.42188 16.6992L7.46875 16.6055C7.26562 16.4492 7.0625 16.293 6.85938 16.1367C6.65625 15.9805 6.45703 15.8164 6.26172 15.6445C5.19922 14.7305 4.33203 13.7266 3.66016 12.6328C2.98828 11.5391 2.51172 10.3047 2.23047 8.92969C2.12891 8.42188 2.03906 7.91406 1.96094 7.40625C1.89062 6.89844 1.85547 6.38672 1.85547 5.87109C1.85547 5.76172 1.85547 5.65625 1.85547 5.55469C1.86328 5.44531 1.87109 5.33594 1.87891 5.22656C1.90234 4.85938 1.95703 4.47656 2.04297 4.07812C2.12891 3.67187 2.24609 3.27734 2.39453 2.89453C2.54297 2.50391 2.72266 2.13672 2.93359 1.79297C3.15234 1.44141 3.40625 1.13281 3.69531 0.867188C3.98438 0.601562 4.30859 0.390625 4.66797 0.234375C5.02734 0.078125 5.42578 0 5.86328 0C6.21484 0 6.55859 0.0546875 6.89453 0.164062C7.23047 0.265625 7.55078 0.40625 7.85547 0.585938C8.41797 0.914062 8.90625 1.34375 9.32031 1.875C9.74219 2.40625 10.0938 2.98828 10.375 3.62109C10.6562 4.24609 10.8672 4.89844 11.0078 5.57812C11.1562 6.25781 11.2383 6.90625 11.2539 7.52344C11.2617 7.63281 11.2656 7.74219 11.2656 7.85156C11.2656 7.96094 11.2656 8.07031 11.2656 8.17969ZM17.1602 6.86719C17.332 6.86719 17.4727 6.90625 17.582 6.98438C17.6914 7.0625 17.7734 7.16016 17.8281 7.27734C17.8906 7.39453 17.9336 7.52734 17.957 7.67578C17.9805 7.82422 17.9922 7.96875 17.9922 8.10938C17.9922 8.74219 17.8672 9.40234 17.6172 10.0898C17.3672 10.7695 17.0508 11.4414 16.668 12.1055C16.293 12.7695 15.8828 13.4023 15.4375 14.0039C15 14.6055 14.5938 15.1445 14.2188 15.6211C13.9453 15.9648 13.6484 16.2734 13.3281 16.5469C13.0078 16.8125 12.6367 17.0156 12.2148 17.1562L12.25 17.2383H13.3047C13.2266 17.7695 13.1367 18.2734 13.0352 18.75C12.9414 19.2188 12.8125 19.6758 12.6484 20.1211C12.4844 20.5586 12.2734 20.9844 12.0156 21.3984C11.7656 21.8047 11.4492 22.207 11.0664 22.6055C10.9961 22.6758 10.9102 22.7539 10.8086 22.8398C10.707 22.9258 10.5977 23.0078 10.4805 23.0859C10.3711 23.1562 10.2539 23.2188 10.1289 23.2734C10.0117 23.3203 9.90234 23.3438 9.80078 23.3438C9.62891 23.3438 9.48828 23.2969 9.37891 23.2031C9.26953 23.1016 9.18359 22.9805 9.12109 22.8398C9.06641 22.6914 9.02734 22.5352 9.00391 22.3711C8.98047 22.207 8.96875 22.0586 8.96875 21.9258C8.96875 21.6523 9.02344 21.293 9.13281 20.8477C9.25 20.4023 9.39844 19.9141 9.57812 19.3828C9.75781 18.8438 9.95703 18.2891 10.1758 17.7188C10.4023 17.1406 10.625 16.5859 10.8438 16.0547C11.0625 15.5156 11.2656 15.0195 11.4531 14.5664C11.6484 14.1133 11.8047 13.7461 11.9219 13.4648C12.2734 12.6367 12.6523 11.8242 13.0586 11.0273C13.4648 10.2227 13.957 9.47656 14.5352 8.78906C14.7617 8.52344 15.0039 8.26953 15.2617 8.02734C15.5273 7.77734 15.793 7.53906 16.0586 7.3125C16.1914 7.20313 16.3633 7.10156 16.5742 7.00781C16.793 6.91406 16.9883 6.86719 17.1602 6.86719Z" fill="black"/>
</svg>
