<svg xmlns="http://www.w3.org/2000/svg" xmlns:xlink="http://www.w3.org/1999/xlink" viewBox="0 0 24 24"><defs><linearGradient id="a" x1="16.93" y1="-0.589" x2="17.156" y2="21.648" gradientUnits="userSpaceOnUse"><stop offset="0" stop-color="#ffce00"/><stop offset="0.05" stop-color="#fabb00"/><stop offset="0.201" stop-color="#eb8401"/><stop offset="0.333" stop-color="#e15c01"/><stop offset="0.436" stop-color="#da4401"/><stop offset="0.5" stop-color="#d83b01"/></linearGradient><linearGradient id="b" x1="7.007" y1="21.188" x2="22.969" y2="21.188" gradientUnits="userSpaceOnUse"><stop offset="0" stop-color="#fa2c46"/><stop offset="0.6" stop-color="#b0080b"/></linearGradient><linearGradient id="c" x1="13.253" y1="0.261" x2="1.064" y2="17.668" gradientUnits="userSpaceOnUse"><stop offset="0" stop-color="#8c0700"/><stop offset="0.6" stop-color="#c72127"/><stop offset="0.645" stop-color="#ca2b3d"/><stop offset="0.765" stop-color="#d04374"/><stop offset="0.868" stop-color="#d5559c"/><stop offset="0.95" stop-color="#d860b4"/><stop offset="1" stop-color="#d964bd"/></linearGradient><linearGradient id="d" x1="17.794" y1="21.55" x2="10.682" y2="20.927" gradientUnits="userSpaceOnUse"><stop offset="0" stop-opacity="0.4"/><stop offset="1" stop-opacity="0"/></linearGradient><linearGradient id="e" x1="13.502" y1="-0.095" x2="10.921" y2="3.591" gradientUnits="userSpaceOnUse"><stop offset="0" stop-opacity="0.4"/><stop offset="1" stop-opacity="0"/></linearGradient></defs><title>Artboard 1</title><path d="M13.153.731,15,4.5V19l-1.844,4.27,6.232-1.842A2.249,2.249,0,0,0,21,19.271V4.732a2.249,2.249,0,0,0-1.612-2.157Z" fill="url(#a)"/><path d="M15,19H7.137a.827.827,0,0,0-.406,1.547l4.431,2.5a2.565,2.565,0,0,0,1.263.332h0A2.571,2.571,0,0,0,15,20.8Z" fill="url(#b)"/><path d="M13.153.731A2.567,2.567,0,0,0,12.42.625h0a2.575,2.575,0,0,0-1.255.326L4.155,4.857A2.249,2.249,0,0,0,3,6.822V17.93a1.069,1.069,0,0,0,1.547.956l2.347-1.174A2,2,0,0,0,8,15.923V8.41A2,2,0,0,1,9.327,6.526L15,4.5V3.205A2.58,2.58,0,0,0,13.153.731Z" fill="url(#c)"/><path d="M15,19H7.137a.827.827,0,0,0-.406,1.547l4.431,2.5a2.565,2.565,0,0,0,1.263.332h0A2.571,2.571,0,0,0,15,20.8Z" fill="url(#d)"/><path d="M13.153.731A2.567,2.567,0,0,0,12.42.625h0a2.575,2.575,0,0,0-1.255.326L4.155,4.857A2.249,2.249,0,0,0,3,6.822V17.93a1.069,1.069,0,0,0,1.547.956l2.347-1.174A2,2,0,0,0,8,15.923V8.41A2,2,0,0,1,9.327,6.526L15,4.5V3.205A2.58,2.58,0,0,0,13.153.731Z" fill="url(#e)"/><rect width="24" height="24" fill="none"/></svg>