<svg width="24" height="23" viewBox="0 0 24 23" fill="none" xmlns="http://www.w3.org/2000/svg">
<path d="M10.5 8H12V15.5H10.5V8ZM6 3.5C6.41406 3.5 6.80078 3.57813 7.16016 3.73438C7.52734 3.89062 7.84766 4.10547 8.12109 4.37891C8.39453 4.65234 8.60938 4.97266 8.76562 5.33984C8.92188 5.69922 9 6.08594 9 6.5C9 6.91406 8.92188 7.30469 8.76562 7.67188C8.60938 8.03125 8.39453 8.34766 8.12109 8.62109C7.84766 8.89453 7.52734 9.10938 7.16016 9.26562C6.80078 9.42188 6.41406 9.5 6 9.5C5.58594 9.5 5.19531 9.42188 4.82812 9.26562C4.46875 9.10938 4.15234 8.89453 3.87891 8.62109C3.60547 8.34766 3.39062 8.03125 3.23438 7.67188C3.07812 7.30469 3 6.91406 3 6.5C3 6.08594 3.07812 5.69922 3.23438 5.33984C3.39062 4.97266 3.60547 4.65234 3.87891 4.37891C4.15234 4.10547 4.46875 3.89062 4.82812 3.73438C5.19531 3.57813 5.58594 3.5 6 3.5ZM6 8C6.21094 8 6.40625 7.96094 6.58594 7.88281C6.76562 7.80469 6.92188 7.69922 7.05469 7.56641C7.19531 7.42578 7.30469 7.26562 7.38281 7.08594C7.46094 6.90625 7.5 6.71094 7.5 6.5H6V5C5.78906 5 5.59375 5.03906 5.41406 5.11719C5.23438 5.19531 5.07422 5.30469 4.93359 5.44531C4.80078 5.57812 4.69531 5.73438 4.61719 5.91406C4.53906 6.09375 4.5 6.28906 4.5 6.5C4.5 6.71094 4.53906 6.90625 4.61719 7.08594C4.69531 7.26562 4.80078 7.42578 4.93359 7.56641C5.07422 7.69922 5.23438 7.80469 5.41406 7.88281C5.59375 7.96094 5.78906 8 6 8ZM9 12.5H3V11H9V12.5ZM3 14H9V15.5H3V14ZM18.75 11C19.2656 11 19.75 11.1016 20.2031 11.3047C20.6562 11.5 21.0508 11.7695 21.3867 12.1133C21.7305 12.4492 22 12.8438 22.1953 13.2969C22.3984 13.75 22.5 14.2344 22.5 14.75V15.5H24V23H13.5V15.5H15V14.75C15 14.2344 15.0977 13.75 15.293 13.2969C15.4883 12.8438 15.7539 12.4492 16.0898 12.1133C16.4336 11.7695 16.832 11.5 17.2852 11.3047C17.7461 11.1016 18.2344 11 18.75 11ZM16.5 15.5H21V14.75C21 14.4375 20.9414 14.1445 20.8242 13.8711C20.707 13.5977 20.5469 13.3594 20.3438 13.1562C20.1406 12.9531 19.9023 12.793 19.6289 12.6758C19.3555 12.5586 19.0625 12.5 18.75 12.5C18.4375 12.5 18.1445 12.5586 17.8711 12.6758C17.5977 12.793 17.3594 12.9531 17.1562 13.1562C16.9531 13.3594 16.793 13.5977 16.6758 13.8711C16.5586 14.1445 16.5 14.4375 16.5 14.75V15.5ZM22.5 17H15V21.5H22.5V17ZM15 10.5781C14.6641 10.875 14.3711 11.2031 14.1211 11.5625C13.8711 11.9219 13.6641 12.3086 13.5 12.7227V6.5H15V10.5781ZM18 3.5V9.18359C17.7422 9.21484 17.4883 9.26562 17.2383 9.33594C16.9883 9.40625 16.7422 9.49219 16.5 9.59375V3.5H18ZM21 5V9.59375C20.7578 9.49219 20.5117 9.40625 20.2617 9.33594C20.0117 9.26562 19.7578 9.21484 19.5 9.18359V5H21ZM22.5 0.5C22.7031 0.5 22.8945 0.539062 23.0742 0.617188C23.2617 0.695313 23.4219 0.804688 23.5547 0.945312C23.6953 1.07812 23.8047 1.23828 23.8828 1.42578C23.9609 1.60547 24 1.79688 24 2V12.7227C23.8359 12.3086 23.6289 11.9219 23.3789 11.5625C23.1289 11.2031 22.8359 10.875 22.5 10.5781V2H1.5V17H12V18.5H1.5C1.29688 18.5 1.10156 18.4609 0.914062 18.3828C0.734375 18.3047 0.574219 18.1992 0.433594 18.0664C0.300781 17.9258 0.195312 17.7656 0.117188 17.5859C0.0390625 17.3984 0 17.2031 0 17V2C0 1.79688 0.0390625 1.60547 0.117188 1.42578C0.195312 1.23828 0.300781 1.07812 0.433594 0.945312C0.574219 0.804688 0.734375 0.695313 0.914062 0.617188C1.10156 0.539062 1.29688 0.5 1.5 0.5H22.5Z" fill="black"/>
</svg>
