<svg viewBox="0 0 24 24" fill="none" xmlns="http://www.w3.org/2000/svg">
<path d="M24 7.5L19.5 9.75V0H24V7.5ZM0 0H4.5V9.75L0 7.5V0ZM6 0H18V10.5C17.3594 10.8281 16.7227 11.1484 16.0898 11.4609C15.457 11.7734 14.8164 12.0938 14.168 12.4219C14.7383 12.6484 15.2578 12.9492 15.7266 13.3242C16.1953 13.6992 16.6016 14.1289 16.9453 14.6133C17.2891 15.0977 17.5469 15.6289 17.7188 16.207C17.8906 16.7852 17.9844 17.3828 18 18C18 18.8281 17.8438 19.6055 17.5312 20.332C17.2188 21.0586 16.793 21.6953 16.2539 22.2422C15.7148 22.7891 15.0781 23.2188 14.3438 23.5312C13.6094 23.8438 12.8281 24 12 24C11.1719 24 10.3945 23.8438 9.66797 23.5312C8.94141 23.2188 8.30469 22.793 7.75781 22.2539C7.21094 21.7148 6.78125 21.0781 6.46875 20.3438C6.15625 19.6094 6 18.8281 6 18C6 17.3828 6.08984 16.7891 6.26953 16.2188C6.44922 15.6484 6.71094 15.1172 7.05469 14.625C7.39844 14.1328 7.80078 13.6992 8.26172 13.3242C8.72266 12.9492 9.24609 12.6484 9.83203 12.4219L6 10.5V0Z" fill="#3177BC"/>
</svg>
