<svg xmlns="http://www.w3.org/2000/svg" viewBox="0 0 24 24"><defs><style>.cls-1{fill:none;}.cls-2{fill:#28a8ea;}.cls-2,.cls-3{fill-rule:evenodd;}.cls-3{fill:#fff;}</style></defs><title>Skype_24x</title><g id="Skype"><g id="_24" data-name="24"><rect class="cls-1" width="24" height="24"/><path class="cls-2" d="M22.09,13.45a9.33,9.33,0,0,0,.11-1.4A10.19,10.19,0,0,0,12,1.91a10,10,0,0,0-1.1.06A6.46,6.46,0,0,0,1,7.4a6.29,6.29,0,0,0,.85,3.17,10.19,10.19,0,0,0-.12,1.48A10.19,10.19,0,0,0,12,22.19a9.87,9.87,0,0,0,1.22-.08,6.47,6.47,0,0,0,9.74-5.51A6.23,6.23,0,0,0,22.09,13.45Z"/><path id="letter" class="cls-3" d="M9.17,11.8a3.14,3.14,0,0,1-1-1.06,2.89,2.89,0,0,1-.34-1.46,2.59,2.59,0,0,1,.62-1.77,3.76,3.76,0,0,1,1.61-1.08,6.4,6.4,0,0,1,2.11-.35,7.47,7.47,0,0,1,1.41.11,4.63,4.63,0,0,1,1,.25,1.91,1.91,0,0,1,.76.48,1,1,0,0,1,.24.66.92.92,0,0,1-.25.68.79.79,0,0,1-.62.26,1.06,1.06,0,0,1-.46-.1A7.67,7.67,0,0,0,13.11,8a3.89,3.89,0,0,0-1.06-.14,2.5,2.5,0,0,0-1.33.34,1.12,1.12,0,0,0-.53,1,1,1,0,0,0,.28.7,2.56,2.56,0,0,0,.74.53c.31.15.78.36,1.39.61l.2.08a9.51,9.51,0,0,1,1.73.89,3.44,3.44,0,0,1,1.06,1.09A2.82,2.82,0,0,1,16,14.63a3,3,0,0,1-.53,1.83A3.15,3.15,0,0,1,14,17.56a6.34,6.34,0,0,1-2.24.36,7.08,7.08,0,0,1-3-.57,1.59,1.59,0,0,1-.62-.49,1.08,1.08,0,0,1-.21-.66.87.87,0,0,1,.27-.68,1,1,0,0,1,.69-.24,1.75,1.75,0,0,1,.81.21c.31.15.55.27.73.34A3.11,3.11,0,0,0,11,16a3.35,3.35,0,0,0,.81.09,2.12,2.12,0,0,0,1.36-.37,1.18,1.18,0,0,0,.46-1,1.09,1.09,0,0,0-.29-.73,2.94,2.94,0,0,0-.84-.61c-.38-.2-.9-.44-1.58-.72a10.11,10.11,0,0,1-1.73-.9"/></g></g></svg>