<svg xmlns="http://www.w3.org/2000/svg" viewBox="0 0 24 24"><title>Sway_24x</title><path d="M24,17l-9,1L6,17V2A1,1,0,0,1,7,1H23a1,1,0,0,1,1,1Z" fill="#37c6d0"/><circle cx="19.875" cy="5.125" r="1.719" fill="#86f2f2"/><path d="M24,13.374v6.875H8.875L18.9,10.226a1.384,1.384,0,0,1,1.952,0Z" fill="#038387"/><path d="M6,17H24a0,0,0,0,1,0,0v5a1,1,0,0,1-1,1H7a1,1,0,0,1-1-1V17A0,0,0,0,1,6,17Z" fill="#036c70"/><rect width="24" height="24" fill="none"/><path d="M13.833,6H6V20h7.6A1.5,1.5,0,0,0,15,18.646V7.167A1.17,1.17,0,0,0,13.833,6Z" opacity="0.5"/><rect y="5" width="14" height="14" rx="1.167" fill="#038387"/><path d="M5.006,11.85a2.261,2.261,0,0,1-.7-.745,2.014,2.014,0,0,1-.246-1.018,1.96,1.96,0,0,1,.456-1.319,2.689,2.689,0,0,1,1.212-.791A5.132,5.132,0,0,1,7.381,7.72a6.292,6.292,0,0,1,2.182.306V9.567a3.4,3.4,0,0,0-.987-.4,4.812,4.812,0,0,0-1.155-.139,2.508,2.508,0,0,0-1.186.251.781.781,0,0,0-.47.713.724.724,0,0,0,.2.506,1.814,1.814,0,0,0,.537.383q.337.168,1.007.445a1.133,1.133,0,0,1,.144.057,8.336,8.336,0,0,1,1.27.627,2.266,2.266,0,0,1,.75.756,2.187,2.187,0,0,1,.272,1.14,2.128,2.128,0,0,1-.427,1.374,2.383,2.383,0,0,1-1.143.767,5.17,5.17,0,0,1-1.628.237,8.577,8.577,0,0,1-1.475-.121,5.019,5.019,0,0,1-1.2-.347V14.185a3.857,3.857,0,0,0,1.212.577,4.731,4.731,0,0,0,1.333.213,2.3,2.3,0,0,0,1.209-.256.811.811,0,0,0,.407-.725.774.774,0,0,0-.228-.554A2.3,2.3,0,0,0,7.378,13q-.4-.2-1.186-.531A6.664,6.664,0,0,1,5.006,11.85Z" fill="#fff"/></svg>