<svg focusable="false" xmlns="http://www.w3.org/2000/svg" width="25" height="24" viewBox="0 0 25 24"><path fill="#767678" fill-rule="evenodd" d="M7 17V9h12.016c0 .103-.011.202-.016.303V17c0 1.104-.896 2-2 2v2.5c0 .828-.672 1.5-1.5 1.5s-1.5-.672-1.5-1.5V19h-2v2.5c0 .828-.672 1.5-1.5 1.5S9 22.328 9 21.5V19c-1.104 0-2-.896-2-2zm-4-5.5c0-.829.672-1.5 1.5-1.5s1.5.671 1.5 1.5V16c0 .828-.672 1.5-1.5 1.5S3 16.828 3 16v-4.5zm17 0c0-.829.672-1.5 1.5-1.5s1.5.671 1.5 1.5V16c0 .828-.672 1.5-1.5 1.5S20 16.828 20 16v-4.5zM19 8H7c0-1.412.491-2.708 1.308-3.733L7.074 2.262c-.144-.235-.071-.543.164-.688.232-.144.541-.072.688.164l1.095 1.78C10.08 2.576 11.472 2 13 2s2.92.576 3.979 1.518l1.095-1.78c.146-.236.455-.308.688-.164.235.145.308.453.164.688l-1.234 2.005C18.509 5.292 19 6.588 19 8zm-7.75-2.375c0-.345-.28-.625-.625-.625S10 5.28 10 5.625s.28.625.625.625.625-.28.625-.625zm4.75 0C16 5.28 15.72 5 15.375 5s-.625.28-.625.625.28.625.625.625.625-.28.625-.625z"></path></svg>