<svg focusable="false" xmlns="http://www.w3.org/2000/svg" width="25" height="24" viewBox="0 0 25 24"><path fill="#767678" fill-rule="evenodd" d="M16.949 6.074c2.952 0 4.113 2.101 4.113 2.101s-2.271 1.161-2.271 3.979c0 3.178 2.829 4.273 2.829 4.273s-1.978 5.566-4.649 5.566c-1.227 0-2.181-.826-3.473-.826-1.318 0-2.625.858-3.477.858-2.439 0-5.521-5.281-5.521-9.525 0-4.177 2.608-6.367 5.055-6.367 1.591 0 2.825.917 3.652.917.71 0 2.027-.976 3.742-.976zm.295-5.049s.285 1.71-1.085 3.357c-1.464 1.758-3.128 1.47-3.128 1.47s-.312-1.383.915-3c1.38-1.819 3.298-1.827 3.298-1.827z"></path></svg>