<svg width="15" height="15" viewBox="0 0 15 15" fill="none" xmlns="http://www.w3.org/2000/svg"><path d="M11.5 4.5C11.3594 4.5 11.2292 4.47396 11.1094 4.42188C10.9896 4.36979 10.8828 4.29948 10.7891 4.21094C10.7005 4.11719 10.6302 4.01042 10.5781 3.89062C10.526 3.77083 10.5 3.64062 10.5 3.5C10.5 3.35938 10.526 3.22917 10.5781 3.10938C10.6302 2.98958 10.7005 2.88542 10.7891 2.79688C10.8828 2.70312 10.9896 2.63021 11.1094 2.57812C11.2292 2.52604 11.3594 2.5 11.5 2.5C11.6406 2.5 11.7708 2.52604 11.8906 2.57812C12.0104 2.63021 12.1146 2.70312 12.2031 2.79688C12.2969 2.88542 12.3698 2.98958 12.4219 3.10938C12.474 3.22917 12.5 3.35938 12.5 3.5C12.5 3.64062 12.474 3.77083 12.4219 3.89062C12.3698 4.01042 12.2969 4.11719 12.2031 4.21094C12.1146 4.29948 12.0104 4.36979 11.8906 4.42188C11.7708 4.47396 11.6406 4.5 11.5 4.5ZM8 0H15V7L7 15L0 8L8 0ZM14 6.58594V1H8.41406L1.41406 8L7 13.5859L14 6.58594Z" fill="#666666"></path></svg>