<svg style="display: block;" width="280" height="180" viewBox="0 0 280 180" fill="none" xmlns="http://www.w3.org/2000/svg"><rect width="280" height="180" fill="#F2FFFD"></rect><path d="M76.1687 63.521L61.3906 156.09L161.279 171.999L176.057 79.4305L76.1687 63.521Z" fill="#C9C6C5"></path><path d="M155.156 66.274C154.244 66.1285 153.31 66.3507 152.561 66.8918C151.812 67.4329 151.309 68.2488 151.161 69.1602L149.156 81.7302C149.057 82.6205 149.305 83.5148 149.848 84.2275C150.392 84.9401 151.189 85.4163 152.075 85.5573C152.961 85.6984 153.867 85.4933 154.605 84.9848C155.344 84.4763 155.858 83.7033 156.041 82.8263L158.046 70.2564C158.189 69.3458 157.966 68.4157 157.424 67.6693C156.883 66.923 156.067 66.4213 155.156 66.274Z" fill="#B3AFAA"></path><path d="M136.697 63.3334C135.783 63.1881 134.849 63.4113 134.1 63.9541C133.351 64.4968 132.848 65.3146 132.702 66.2275L130.697 78.7895C130.598 79.6799 130.846 80.5742 131.389 81.2868C131.933 81.9995 132.73 82.4757 133.616 82.6167C134.502 82.7578 135.408 82.5527 136.146 82.0442C136.885 81.5357 137.399 80.7627 137.582 79.8857L139.587 67.3236C139.734 66.4132 139.514 65.4816 138.974 64.7336C138.434 63.9856 137.618 63.4825 136.707 63.335L136.697 63.3334Z" fill="#B3AFAA"></path><path d="M118.239 60.392C117.325 60.2467 116.391 60.4699 115.642 61.0127C114.893 61.5554 114.39 62.3732 114.244 63.2861L112.239 75.8481C112.096 76.7607 112.32 77.6929 112.863 78.4407C113.406 79.1885 114.224 79.691 115.137 79.8383C116.043 79.9722 116.967 79.7434 117.706 79.2016C118.445 78.6597 118.94 77.8486 119.084 76.9443L121.089 64.3822C121.238 63.476 121.022 62.5479 120.488 61.8003C119.954 61.0528 119.146 60.5465 118.239 60.392Z" fill="#B3AFAA"></path><path d="M99.7808 57.4506C98.8669 57.3052 97.9325 57.5285 97.1833 58.0712C96.4342 58.614 95.9315 59.4318 95.786 60.3447L93.7806 72.9067C93.6805 73.3574 93.671 73.8234 93.7527 74.2778C93.8343 74.7322 94.0055 75.1658 94.2564 75.5536C94.5072 75.9413 94.8326 76.2754 95.2138 76.5365C95.595 76.7976 96.0242 76.9804 96.4767 77.0744C96.9292 77.1684 97.3959 77.1717 97.8497 77.0841C98.3034 76.9965 98.7353 76.8197 99.1201 76.564C99.5049 76.3083 99.835 75.9789 100.091 75.5947C100.348 75.2105 100.525 74.7794 100.613 74.3262C100.636 74.2186 100.653 74.1099 100.665 74.0005L102.67 61.4384C102.815 60.5271 102.593 59.5955 102.051 58.8479C101.509 58.1003 100.693 57.5978 99.7808 57.4506Z" fill="#B3AFAA"></path><path d="M172.77 99.5443C172.77 99.5443 164.243 152.978 147.419 165.454C147.419 165.454 132.884 155.928 114.157 156.677C75.0457 158.254 57.3135 149.217 46 141.292C46 141.292 66.527 124.164 72.843 83.6387L172.77 99.5443Z" fill="#F3F2F1"></path><path d="M76.1669 63.5171L72.9507 83.6631L172.839 99.5726L176.056 79.4266L76.1669 63.5171Z" fill="#FAE969"></path><path d="M157.067 76.4076L156.041 82.8188C155.918 83.7254 155.445 84.5478 154.721 85.1093C153.998 85.6708 153.084 85.9267 152.174 85.8219C151.264 85.717 150.432 85.2599 149.856 84.5487C149.28 83.8375 149.006 82.929 149.093 82.0184C149.105 81.9167 149.122 81.8149 149.142 81.7148L150.184 75.3115L157.067 76.4076Z" fill="#F1CA67"></path><path d="M138.616 73.4506L137.598 79.8854C137.455 80.7978 136.957 81.6167 136.212 82.1632C135.467 82.7096 134.535 82.9392 133.621 82.8016C132.707 82.664 131.884 82.1705 131.333 81.429C130.783 80.6875 130.548 79.7583 130.681 78.8445L130.69 78.7893L131.708 72.3545L138.616 73.4506Z" fill="#F1CA67"></path><path d="M120.134 70.5408L119.115 76.9457C118.996 77.8556 118.521 78.6813 117.794 79.2429C117.067 79.8045 116.148 80.0564 115.236 79.9437C114.324 79.831 113.494 79.3629 112.926 78.6413C112.358 77.9197 112.099 77.0033 112.205 76.0916C112.214 76.0183 112.225 75.9458 112.239 75.8732L113.257 69.4463L120.134 70.5408Z" fill="#F1CA67"></path><path d="M101.676 67.5678L100.665 74.0026C100.593 74.4536 100.433 74.886 100.193 75.2751C99.9541 75.6642 99.6403 76.0025 99.2701 76.2705C98.8999 76.5385 98.4805 76.731 98.0357 76.8371C97.591 76.9432 97.1297 76.9608 96.6782 76.8888C96.2267 76.8168 95.7938 76.6567 95.4042 76.4177C95.0146 76.1786 94.676 75.8652 94.4077 75.4954C94.1394 75.1256 93.9466 74.7066 93.8404 74.2624C93.7342 73.8182 93.7166 73.3575 93.7886 72.9065L94.7992 66.4717L101.676 67.5678Z" fill="#F1CA67"></path><path d="M222.23 96.5696L220.209 107.823C220.094 108.424 219.752 108.958 219.254 109.314C218.756 109.67 218.14 109.821 217.534 109.736L217.501 109.919C217.433 110.299 217.29 110.662 217.081 110.988C216.872 111.313 216.601 111.594 216.284 111.815C215.966 112.036 215.608 112.192 215.23 112.274C214.851 112.357 214.461 112.364 214.08 112.295L213.652 112.217L213.56 112.737C213.513 112.998 213.416 113.247 213.273 113.469C213.13 113.692 212.944 113.885 212.727 114.036C212.509 114.187 212.264 114.294 212.005 114.35C211.746 114.406 211.479 114.41 211.218 114.363L210.7 114.27C210.201 115.18 209.428 115.91 208.491 116.357C207.554 116.805 206.5 116.947 205.478 116.764C204.456 116.581 203.517 116.082 202.794 115.338C202.071 114.593 201.6 113.64 201.449 112.614L200.929 112.522C200.668 112.475 200.419 112.378 200.196 112.236C199.973 112.093 199.78 111.908 199.629 111.69C199.478 111.473 199.371 111.228 199.314 110.97C199.258 110.711 199.253 110.444 199.3 110.184L199.394 109.664L199 109.593C198.321 109.478 197.704 109.129 197.256 108.606C196.809 108.083 196.56 107.42 196.552 106.732C196.549 106.544 196.561 106.357 196.589 106.171L196.622 105.988C196.084 105.862 195.606 105.553 195.271 105.114C194.937 104.674 194.765 104.133 194.786 103.581C194.778 103.477 194.786 103.374 194.81 103.273L196.832 92.0179C196.886 91.7136 197 91.423 197.167 91.1627C197.334 90.9025 197.551 90.6776 197.805 90.5011C198.059 90.3246 198.345 90.1999 198.648 90.134C198.95 90.0682 199.263 90.0626 199.567 90.1174L220.295 93.8316C220.914 93.9407 221.464 94.2897 221.826 94.8026C222.189 95.3156 222.333 95.9507 222.228 96.5696" fill="#E6E6E6"></path><path d="M243.026 67.1817C243.693 63.4696 243.606 59.6616 242.771 55.9836C241.936 52.3056 240.37 48.8328 238.165 45.7711C235.96 42.7095 233.162 40.1216 229.936 38.161C226.711 36.2004 223.124 34.9071 219.388 34.3579C212.171 33.3707 204.85 35.1828 198.929 39.4217C193.009 43.6606 188.939 50.0041 187.557 57.1478C186.81 61.2083 186.969 65.3837 188.023 69.3757C189.078 73.3677 191.002 77.0779 193.658 80.2413C195.001 81.8348 195.978 83.7032 196.52 85.7149C197.062 87.7265 197.155 89.8324 196.793 91.8839L196.77 92.0125L222.271 96.5862L222.29 96.4821C222.704 94.3869 223.568 92.4064 224.824 90.6779C226.079 88.9494 227.696 87.514 229.562 86.4711C233.07 84.4217 236.09 81.6363 238.415 78.3072C240.74 74.9781 242.314 71.1846 243.028 67.1888" fill="#FAE969"></path><path d="M223.643 59.4644C223.379 59.4995 223.111 59.4387 222.888 59.2933C221.944 58.6902 220.89 58.2805 219.787 58.0884C219.495 58.0361 219.237 57.8704 219.068 57.6277C218.899 57.385 218.833 57.0852 218.886 56.7943C218.938 56.5034 219.104 56.2451 219.347 56.0764C219.59 55.9077 219.89 55.8422 220.181 55.8945C221.579 56.1387 222.914 56.6588 224.108 57.4244C224.3 57.5487 224.448 57.7286 224.534 57.9398C224.62 58.151 224.638 58.3834 224.588 58.6056C224.538 58.8279 224.42 59.0294 224.251 59.1829C224.083 59.3365 223.871 59.4347 223.645 59.4644" fill="#F9F8F6"></path><path d="M223 68.7018C222.028 68.8273 221.042 68.6251 220.198 68.1272C219.354 67.6294 218.701 66.8644 218.342 65.9536C217.843 64.7407 217.701 63.411 217.932 62.1203C218.35 59.7822 220.387 57.9251 223.248 57.2729C223.394 57.239 223.546 57.235 223.693 57.2613C223.841 57.2876 223.981 57.3436 224.107 57.4259C226.566 59.0259 227.833 61.4729 227.415 63.8134C227.185 65.1045 226.592 66.3036 225.705 67.2697C224.997 68.0474 224.041 68.5548 223 68.7049V68.7018ZM223.28 59.5708C221.557 60.0889 220.367 61.189 220.13 62.5146C219.976 63.3763 220.066 64.2639 220.392 65.0767C220.52 65.4348 220.74 65.7527 221.031 65.9983C221.322 66.244 221.672 66.4085 222.047 66.4754C222.421 66.5422 222.807 66.5089 223.165 66.379C223.523 66.249 223.84 66.0269 224.084 65.7351C224.671 65.0851 225.064 64.2831 225.217 63.4207C225.454 62.0951 224.718 60.652 223.28 59.57V59.5708Z" fill="#F9F8F6"></path><path d="M220.129 58.099C220.015 58.114 219.899 58.1114 219.786 58.0911C218.684 57.8889 217.553 57.9087 216.459 58.1494C216.17 58.2152 215.867 58.1637 215.617 58.0063C215.366 57.8489 215.188 57.5984 215.122 57.31C215.056 57.0216 215.108 56.7189 215.266 56.4684C215.423 56.218 215.674 56.0403 215.963 55.9745C217.349 55.669 218.782 55.6422 220.179 55.8957C220.441 55.9423 220.678 56.0811 220.847 56.2871C221.016 56.493 221.105 56.7525 221.099 57.0186C221.093 57.2847 220.992 57.5399 220.814 57.738C220.636 57.9362 220.393 58.0642 220.129 58.099Z" fill="#F9F8F6"></path><path d="M216.357 58.1654C216.093 58.2004 215.825 58.1397 215.602 57.9943C214.659 57.3909 213.604 56.9812 212.501 56.7893C212.357 56.7634 212.219 56.7094 212.095 56.6304C211.972 56.5513 211.866 56.4487 211.782 56.3285C211.698 56.2083 211.639 56.0728 211.608 55.9298C211.576 55.7868 211.574 55.639 211.6 55.4949C211.626 55.3508 211.68 55.2132 211.759 55.09C211.838 54.9667 211.941 54.8603 212.061 54.7767C212.181 54.6931 212.317 54.634 212.46 54.6028C212.603 54.5716 212.751 54.5688 212.896 54.5947C214.293 54.8401 215.627 55.361 216.821 56.1269C217.012 56.2513 217.161 56.4313 217.246 56.6425C217.332 56.8538 217.351 57.0862 217.3 57.3085C217.25 57.5308 217.132 57.7322 216.964 57.8857C216.795 58.0392 216.583 58.1374 216.357 58.167" fill="#F9F8F6"></path><path d="M215.735 67.404C215.28 67.4629 214.819 67.4504 214.368 67.367C211.289 66.815 210.152 63.5818 210.647 60.8218C211.064 58.4836 213.101 56.6257 215.962 55.9744C216.108 55.941 216.26 55.9373 216.407 55.9635C216.554 55.9896 216.695 56.0451 216.821 56.1266C219.279 57.7274 220.547 60.1743 220.129 62.514C219.712 64.8538 218.086 67.0981 215.735 67.4088V67.404ZM215.995 58.2723C214.271 58.7904 213.081 59.8897 212.843 61.216C212.639 62.3603 212.838 64.8348 214.761 65.1779C216.683 65.5209 217.727 63.2671 217.931 62.1221C218.168 60.7965 217.433 59.3534 215.995 58.2723Z" fill="#F9F8F6"></path><path d="M212.843 56.7979C212.729 56.8131 212.614 56.8102 212.501 56.7892C211.399 56.5881 210.268 56.6082 209.174 56.8484C208.885 56.9142 208.582 56.8627 208.331 56.7052C208.08 56.5478 207.902 56.2973 207.837 56.0089C207.771 55.7205 207.822 55.4178 207.98 55.1674C208.137 54.9169 208.388 54.7393 208.677 54.6735C210.063 54.3684 211.496 54.3415 212.892 54.5946C213.154 54.6417 213.391 54.7807 213.559 54.9866C213.728 55.1925 213.817 55.4517 213.811 55.7176C213.805 55.9834 213.704 56.2384 213.527 56.4366C213.349 56.6349 213.107 56.7633 212.843 56.7987" fill="#F9F8F6"></path><path d="M208.428 66.1052C207.981 66.1633 207.528 66.1518 207.085 66.0713C204.006 65.5193 202.869 62.2861 203.363 59.5261C203.781 57.1872 205.817 55.3301 208.68 54.6787C208.826 54.6452 208.977 54.6414 209.124 54.6675C209.272 54.6937 209.412 54.7493 209.538 54.8309C211.996 56.4317 213.264 58.8787 212.846 61.2184C212.617 62.5094 212.023 63.7082 211.136 64.674C210.428 65.4515 209.471 65.9592 208.43 66.11L208.428 66.1052ZM205.558 59.9125C205.353 61.0575 205.553 63.5321 207.475 63.8743C207.85 63.9401 208.236 63.9062 208.593 63.7763C208.951 63.6463 209.268 63.4248 209.512 63.1339C210.1 62.4835 210.493 61.6817 210.647 60.8194C210.884 59.4946 210.147 58.0507 208.709 56.9688C206.985 57.4868 205.795 58.5869 205.558 59.9133V59.9125Z" fill="#F9F8F6"></path><path d="M221.917 98.309L221.37 101.358L195.289 100.587L195.843 97.5078L221.917 98.309Z" fill="#CCCCCC"></path><path d="M220.827 104.378L220.275 107.458L196.55 106.732C196.546 106.545 196.558 106.357 196.587 106.172L196.619 105.989C196.081 105.862 195.604 105.553 195.269 105.114C194.934 104.675 194.762 104.133 194.783 103.581L220.827 104.378Z" fill="#CCCCCC"></path><path d="M211.788 86.1403C211.663 86.1573 211.536 86.1555 211.411 86.1348C211.171 86.0966 210.947 85.9921 210.763 85.8331C210.579 85.6741 210.444 85.4669 210.372 85.235L203.434 62.9537C203.331 62.6238 203.364 62.2666 203.525 61.9607C203.685 61.6548 203.961 61.4252 204.292 61.3225C204.622 61.2198 204.98 61.2524 205.286 61.4131C205.592 61.5738 205.822 61.8494 205.925 62.1793L212.083 81.9553L223.422 66.1112C223.52 65.968 223.645 65.8457 223.791 65.7516C223.937 65.6575 224.1 65.5934 224.271 65.5632C224.443 65.5329 224.618 65.5371 224.787 65.5754C224.957 65.6137 225.117 65.6853 225.258 65.7862C225.399 65.8871 225.519 66.0152 225.61 66.1629C225.701 66.3105 225.762 66.4749 225.789 66.6463C225.815 66.8178 225.808 66.9928 225.766 67.1612C225.724 67.3295 225.649 67.4878 225.545 67.6268L212.676 85.6064C212.572 85.7516 212.439 85.8739 212.286 85.9658C212.133 86.0576 211.962 86.117 211.785 86.1403" fill="#F9F8F6"></path><path d="M210.7 114.272C210.201 115.182 209.429 115.913 208.492 116.361C207.555 116.809 206.501 116.951 205.478 116.768C204.456 116.585 203.516 116.086 202.793 115.341C202.07 114.596 201.6 113.643 201.449 112.616L210.7 114.272Z" fill="#CCCCCC"></path><path d="M246.635 114.152C247.84 117.721 250.093 120.845 253.101 123.117C253.224 123.208 253.324 123.326 253.392 123.462C253.461 123.599 253.497 123.749 253.497 123.902C253.497 124.054 253.461 124.205 253.392 124.341C253.324 124.477 253.224 124.595 253.101 124.686C250.127 127.305 247.89 130.656 246.615 134.405C246.607 134.671 246.497 134.923 246.306 135.107C246.116 135.292 245.861 135.396 245.595 135.396C245.329 135.396 245.074 135.292 244.884 135.107C244.693 134.923 244.583 134.671 244.575 134.405C243.3 130.65 241.055 127.297 238.067 124.686C237.859 124.514 237.728 124.266 237.703 123.997C237.678 123.728 237.761 123.46 237.933 123.252C237.973 123.202 238.018 123.157 238.067 123.117C241.076 120.846 243.329 117.721 244.534 114.152C244.53 114.011 244.555 113.872 244.606 113.741C244.657 113.611 244.734 113.491 244.832 113.391C244.929 113.29 245.047 113.21 245.176 113.156C245.305 113.101 245.444 113.073 245.585 113.073C245.725 113.073 245.864 113.101 245.993 113.156C246.123 113.21 246.24 113.29 246.338 113.391C246.436 113.491 246.513 113.611 246.564 113.741C246.615 113.872 246.639 114.011 246.635 114.152Z" fill="#FFD590"></path><path d="M225.883 140.393C226.778 143.027 228.44 145.334 230.656 147.017C230.808 147.131 230.908 147.3 230.934 147.488C230.961 147.675 230.913 147.865 230.799 148.017C230.758 148.07 230.71 148.118 230.656 148.159C228.466 150.093 226.82 152.566 225.883 155.331C225.837 155.488 225.742 155.625 225.611 155.723C225.481 155.821 225.322 155.874 225.159 155.874C224.996 155.874 224.837 155.821 224.706 155.723C224.576 155.625 224.48 155.488 224.434 155.331C223.497 152.566 221.852 150.093 219.661 148.159C219.51 148.046 219.41 147.877 219.383 147.69C219.356 147.503 219.404 147.313 219.517 147.161C219.558 147.107 219.607 147.058 219.661 147.017C221.871 145.328 223.532 143.023 224.434 140.393C224.441 140.206 224.52 140.028 224.655 139.897C224.79 139.766 224.971 139.693 225.159 139.693C225.347 139.693 225.528 139.766 225.663 139.897C225.798 140.028 225.877 140.206 225.883 140.393Z" fill="#FFD590"></path></svg>