<svg width="309.6" height="200" viewBox="0 0 309.6 200" fill="none" xmlns="http://www.w3.org/2000/svg"><rect width="309.6" height="200" fill="#ECF4FE"></rect><g opacity="0.45"><path d="M134.255 83.8026H212.039C218.081 83.8026 223 79.9008 223 75.1084V37.9992C223 33.2068 218.081 29.3051 212.039 29.3051H134.255C128.214 29.3051 123.295 33.2068 123.295 37.9992V75.1084C123.295 79.9008 128.214 83.8026 134.255 83.8026Z" fill="#C8E2FF"></path><path d="M63.9608 158.338H165.255C171.351 158.338 176.27 154.437 176.216 149.602V112.493C176.216 107.7 171.297 103.799 165.255 103.799H63.9608C57.919 103.799 53 107.7 53 112.535V149.602C53 154.437 57.919 158.338 63.9608 158.338Z" fill="#C8E2FF"></path></g><path d="M138 124.458V44.7039C138 43.1905 139.212 41.998 140.74 41.998H255.26C256.788 41.998 258 43.1905 258 44.7039V124.412C258 126.384 256.366 127.99 254.311 127.99H141.636C139.634 128.035 138 126.43 138 124.458Z" fill="#E1DFDD"></path><path d="M138 55.7202H172.419V127.99H141C139.343 127.99 138 126.647 138 124.99V55.7202Z" fill="white"></path><rect x="144.977" y="67.1562" width="20.4651" height="3.65957" rx="1.82979" fill="#EAE9E7"></rect><rect x="144.977" y="77.2178" width="20.4651" height="3.65957" rx="1.82979" fill="#EAE9E7"></rect><rect x="144.977" y="87.2808" width="20.4651" height="3.65957" rx="1.82979" fill="#EAE9E7"></rect><rect x="144.977" y="97.3442" width="20.4651" height="3.65957" rx="1.82979" fill="#EAE9E7"></rect><path d="M258 55.7202H138V44.3004C138 43.0111 139.212 41.998 140.634 41.998H255.366C256.841 41.998 258 43.0571 258 44.3004V55.7202Z" fill="#4FA2E1"></path><path d="M196.012 52.5194H174.405C172.526 52.5194 171.023 51.4142 171.023 50.0326V48.1445C171.023 46.763 172.526 45.6577 174.405 45.6577H196.012C197.891 45.6577 199.394 46.763 199.394 48.1445V50.0326C199.456 51.4142 197.891 52.5194 196.012 52.5194Z" fill="#0078D4"></path><path d="M240.43 63.1279H184.472C182.263 63.1279 180.472 64.9188 180.472 67.1279V71.3278C180.472 73.537 182.263 75.3278 184.472 75.3278H240.43C242.639 75.3278 244.43 73.537 244.43 71.3279V67.1279C244.43 64.9188 242.639 63.1279 240.43 63.1279Z" fill="white"></path><path d="M186.75 72.2787C188.484 72.2787 189.889 70.9131 189.889 69.2285C189.889 67.5439 188.484 66.1782 186.75 66.1782C185.017 66.1782 183.611 67.5439 183.611 69.2285C183.611 70.9131 185.017 72.2787 186.75 72.2787Z" fill="#7BDDEF"></path><rect x="193.421" y="67.7031" width="33.7444" height="3.05025" rx="1.52512" fill="#E1DFDD"></rect><path d="M240.43 79.1396H184.472C182.263 79.1396 180.472 80.9305 180.472 83.1396V87.3396C180.472 89.5487 182.263 91.3396 184.472 91.3396H240.43C242.639 91.3396 244.43 89.5487 244.43 87.3396V83.1396C244.43 80.9305 242.639 79.1396 240.43 79.1396Z" fill="white"></path><path d="M186.75 88.2909C188.484 88.2909 189.889 86.9253 189.889 85.2407C189.889 83.5561 188.484 82.1904 186.75 82.1904C185.017 82.1904 183.611 83.5561 183.611 85.2407C183.611 86.9253 185.017 88.2909 186.75 88.2909Z" fill="#F7B548"></path><rect x="193.421" y="83.7158" width="33.7444" height="3.05025" rx="1.52512" fill="#E1DFDD"></rect><path d="M240.43 95.1523H184.472C182.263 95.1523 180.472 96.9432 180.472 99.1523V103.352C180.472 105.561 182.263 107.352 184.472 107.352H240.43C242.639 107.352 244.43 105.561 244.43 103.352V99.1523C244.43 96.9432 242.639 95.1523 240.43 95.1523Z" fill="white"></path><path d="M186.75 104.303C188.484 104.303 189.889 102.937 189.889 101.253C189.889 99.5683 188.484 98.2026 186.75 98.2026C185.017 98.2026 183.611 99.5683 183.611 101.253C183.611 102.937 185.017 104.303 186.75 104.303Z" fill="#E1DFDD"></path><rect x="193.421" y="99.728" width="33.7444" height="3.05025" rx="1.52512" fill="#E1DFDD"></rect><path d="M183.625 57.6167C183.556 57.6561 183.486 57.6955 183.361 57.7198C182.884 57.8518 182.403 57.5715 182.271 57.0941L181.192 53.15C181.06 52.6726 181.34 52.192 181.818 52.0599C182.296 51.9279 182.776 52.2082 182.908 52.6857L183.988 56.6297C184.08 57.0375 183.92 57.4043 183.625 57.6167Z" fill="#ED9583"></path><path d="M176.548 62.0308C176.269 62.1886 175.931 62.2417 175.653 62.0766L172.699 60.4342C172.293 60.2039 172.122 59.6567 172.352 59.2504C172.583 58.8441 173.13 58.6726 173.537 58.9029L176.491 60.5453C176.897 60.7756 177.068 61.3228 176.838 61.7291C176.753 61.8231 176.668 61.9171 176.548 62.0308Z" fill="#ED9583"></path><path d="M174.71 70.3375C174.605 70.3966 174.5 70.4558 174.376 70.4801L170.974 70.9768C170.512 71.0542 170.046 70.7193 170.004 70.2373C169.926 69.775 170.262 69.3095 170.744 69.2669L174.146 68.7702C174.608 68.6928 175.074 69.0277 175.116 69.5097C175.149 69.8129 174.989 70.1798 174.71 70.3375Z" fill="#ED9583"></path><path d="M192.332 57.7089C192.053 57.8666 191.715 57.9198 191.418 57.7198C191.011 57.4895 190.875 56.9226 191.105 56.5162L192.874 53.5385C193.104 53.1322 193.672 52.9956 194.078 53.2259C194.484 53.4562 194.621 54.0231 194.39 54.4294L192.622 57.4072C192.557 57.536 192.472 57.63 192.332 57.7089Z" fill="#ED9583"></path><path d="M127.869 144.607L126.632 149.045C126.494 149.538 125.833 149.711 125.478 149.337L122.026 146.146L118.574 142.954C118.207 142.625 118.382 141.997 118.874 141.878L123.55 140.676L128.226 139.474C128.719 139.355 129.218 139.765 129.08 140.258L127.869 144.607Z" fill="#ED9583"></path><path d="M181.555 103.13L176.781 102.147C176.251 102.038 176.041 101.425 176.426 101.077L179.693 97.7137L182.959 94.3508C183.296 93.9929 183.971 94.132 184.117 94.5893L185.576 98.9258L187.034 103.262C187.18 103.72 186.763 104.203 186.232 104.094L181.555 103.13Z" fill="#ED9583"></path><path d="M126.905 144.312C136.439 146.953 170.339 141.009 181.712 102.238" stroke="#ED9583" stroke-width="2" fill="none"></path><path d="M33.1951 22.3412L38.7992 22.2278C38.7992 22.2278 43.4241 21.9705 46.8558 25.2668C50.2875 28.5631 50.2162 33.1923 50.2162 33.1923L50.328 38.7996C50.328 38.7996 50.5838 43.4222 47.2862 46.8546C43.9887 50.2871 39.3573 50.2172 39.3573 50.2172L33.7532 50.3306C33.7532 50.3306 29.1283 50.5878 25.6966 47.2915C22.2649 43.9952 22.3363 39.366 22.3363 39.366L22.2245 33.7588C22.2245 33.7588 21.9687 29.1361 25.2662 25.7037C28.5637 22.2713 33.1951 22.3412 33.1951 22.3412Z" fill="#9C9EFE"></path><path fill-rule="evenodd" clip-rule="evenodd" d="M44.2296 37.0576C44.3075 40.9224 41.2372 44.1183 37.372 44.1957C33.5068 44.273 30.3103 41.2027 30.2324 37.3378L30.1115 31.3396C30.1003 30.7875 30.5389 30.3309 31.0911 30.3198L35.1259 30.2391C35.678 30.228 36.1347 30.6667 36.1458 31.2188L36.31 39.363C36.3446 41.0808 37.7653 42.4454 39.4831 42.411C41.201 42.3766 42.5656 40.9562 42.5309 39.2385C42.4963 37.5208 41.0756 36.1562 39.3578 36.1906L38.118 36.2154C37.5658 36.2264 37.1092 35.7878 37.0981 35.2356L37.0029 30.5126C36.9994 30.3409 37.1359 30.1988 37.3076 30.1954V30.1954C41.1729 30.118 44.1517 33.1927 44.2296 37.0576Z" fill="white"></path><path d="M39.9981 73.0009H44.0019C44.0019 73.0009 47.3084 72.8841 49.7112 75.2876C52.1139 77.6912 51.9957 80.9961 51.9957 80.9961L51.9939 85.0021C51.9939 85.0021 52.1094 88.307 49.7046 90.7106C47.2997 93.1142 43.9933 92.9973 43.9933 92.9973H39.9895C39.9895 92.9973 36.683 93.1142 34.2803 90.7106C31.8775 88.307 31.9958 85.0021 31.9958 85.0021L31.9975 80.9961C31.9975 80.9961 31.8821 77.6912 34.2869 75.2876C36.6917 72.8841 39.9981 73.0009 39.9981 73.0009Z" fill="#58B07C"></path><path d="M42.5772 77.5C40.5085 77.5 38.8308 79.2191 38.8299 81.3396L38.8285 84.6604C38.8276 86.7809 40.5038 88.5 42.5725 88.5L43.4836 88.5C43.9309 88.5 44.2937 88.1283 44.2938 87.6698L44.2944 86.4726C44.2947 85.6855 43.6865 85.0322 42.9014 84.9764L41.7935 84.8976C41.3463 84.8976 41.1062 84.7038 41.1064 84.2453L41.1075 81.7547C41.1077 81.2962 41.4704 80.9245 41.9177 80.9245L42.7967 80.9245C43.6252 80.9245 44.297 80.253 44.2974 79.4245L44.2979 78.3302C44.2981 77.8717 43.9356 77.5 43.4883 77.5L42.5772 77.5Z" fill="white"></path><path d="M64.5977 41.0011H69.4023C69.4023 41.0011 73.3701 40.8609 76.2529 43.7452C79.1356 46.6295 78.993 50.5954 78.993 50.5954L78.99 55.4025C78.99 55.4025 79.1277 59.3684 76.2414 62.2527C73.3551 65.137 69.3874 64.9968 69.3874 64.9968H64.5829C64.5829 64.9968 60.615 65.137 57.7323 62.2527C54.8495 59.3684 54.9922 55.4025 54.9922 55.4025L54.9952 50.5954C54.9952 50.5954 54.8574 46.6295 57.7437 43.7452C60.6301 40.8609 64.5977 41.0011 64.5977 41.0011Z" fill="#31B1E8"></path><path d="M62.316 47.4395C60.9905 47.4395 59.9153 48.5139 59.9145 49.8392L59.9111 55.4387C59.9102 56.7641 60.9841 57.8385 62.3096 57.8385L62.9096 57.8385L62.9082 60.0383L65.1096 57.8385L71.7096 57.8385C73.0351 57.8385 74.1102 56.7641 74.1111 55.4387L74.1145 49.8392C74.1153 48.5139 73.0415 47.4395 71.716 47.4395L62.316 47.4395Z" fill="white"></path><ellipse rx="1.36005" ry="1.36028" transform="matrix(1 5.69085e-08 -0.000619529 1 63.3529 52.3993)" fill="#005CB7"></ellipse><ellipse rx="1.36005" ry="1.36028" transform="matrix(1 7.16315e-08 -0.000619531 1 67.0721 52.3998)" fill="#005CB7"></ellipse><ellipse rx="1.36005" ry="1.36028" transform="matrix(1 7.16315e-08 -0.000619531 1 70.7933 52.3989)" fill="#005CB7"></ellipse><path d="M65.4183 75.3618C65.7908 75.1447 66 75 66 75C66 75 65.7908 74.8492 65.4183 74.6322C63.1787 73.3489 61.289 71.6075 59.8954 69.5427C59.6601 69.193 59.4967 69 59.4967 69C59.4967 69 59.3399 69.193 59.1046 69.5427C57.7076 71.6066 55.8187 73.3493 53.5817 74.6382C53.3813 74.7496 53.1871 74.8704 53 75C53 75 53.2092 75.1447 53.5817 75.3618C55.8202 76.649 57.7094 78.3921 59.1046 80.4573C59.3399 80.801 59.4967 81 59.4967 81C59.4967 81 59.6601 80.807 59.8954 80.4573C61.2889 78.3908 63.1785 76.6475 65.4183 75.3618V75.3618Z" fill="#C7E0F4"></path><path d="M60.5627 33.224L60.9147 32.9787L60.5627 32.7333C59.1954 31.8797 58.0393 30.7273 57.1813 29.3627C57.0427 29.128 56.9467 29 56.9467 29C56.8562 29.1148 56.7742 29.236 56.7013 29.3627C55.8525 30.7238 54.7077 31.8759 53.352 32.7333L53 32.9787L53.352 33.224C54.7122 34.0804 55.8579 35.2371 56.7013 36.6053C56.7742 36.732 56.8562 36.8532 56.9467 36.968C56.9467 36.968 57.0427 36.84 57.1813 36.6053C58.038 35.2368 59.1942 34.0807 60.5627 33.224Z" fill="#C7E0F4"></path><path d="M59.6887 95.7108L60 95.4953L59.6887 95.2798C58.4794 94.5299 57.4569 93.5174 56.6981 92.3186C56.5755 92.1124 56.4906 92 56.4906 92C56.4105 92.1008 56.338 92.2073 56.2736 92.3186C55.5229 93.5144 54.5103 94.5265 53.3113 95.2798L53 95.4953L53.3113 95.7108C54.5143 96.4632 55.5276 97.4794 56.2736 98.6814C56.338 98.7927 56.4105 98.8992 56.4906 99C56.4906 99 56.5755 98.8876 56.6981 98.6814C57.4558 97.4792 58.4783 96.4635 59.6887 95.7108Z" fill="#3985C6"></path><path d="M45.5909 60.7742C45.8539 60.606 46 60.4963 46 60.4963C46 60.4963 45.8539 60.3867 45.5909 60.2258C44.0419 59.2605 42.7349 57.9524 41.7703 56.4021C41.6096 56.1462 41.5 56 41.5 56C41.5 56 41.3904 56.1462 41.2297 56.4021C40.2631 57.9507 38.9565 59.2584 37.4091 60.2258C37.1461 60.3867 37 60.4963 37 60.4963C37 60.4963 37.1461 60.606 37.4091 60.7742C38.9545 61.7409 40.2608 63.0457 41.2297 64.5906C41.3904 64.8538 41.5 65 41.5 65C41.5 65 41.6096 64.8538 41.7703 64.5979C42.7349 63.0476 44.0419 61.7395 45.5909 60.7742Z" fill="#3985C6"></path><path d="M113 131.02H65.0006L65.0009 88.1489C65.001 85.8711 66.9077 84 69.2289 84H108.773C111.094 84 113.001 85.8711 113.001 88.1489L113 131.02Z" fill="#797673"></path><path d="M65.0005 130.979L113 130.979L113 173.851C113 176.129 111.093 178 108.772 178L69.228 178C66.9068 178 65.0001 176.129 65.0001 173.851L65.0005 130.979V130.979Z" fill="#797673"></path><path d="M112.047 131.02L65.9537 131.02L65.9541 90.2639C65.9541 89.125 66.9075 88.1895 68.0681 88.1895L109.933 88.1895C111.094 88.1895 112.047 89.125 112.047 90.2639L112.047 131.02Z" fill="#EAE9E8"></path><path d="M65.9536 130.614L112.047 130.614L112.046 171.736C112.046 172.875 111.093 173.811 109.932 173.811L68.0672 173.811C66.9066 173.811 65.9532 172.875 65.9532 171.736L65.9536 130.614V130.614Z" fill="white"></path><path d="M72.2552 143.589C74.5903 143.589 76.4832 141.732 76.4832 139.44C76.4833 137.149 74.5903 135.292 72.2553 135.292C69.9203 135.292 68.0273 137.149 68.0273 139.44C68.0273 141.732 69.9202 143.589 72.2552 143.589Z" fill="#7BDDEF"></path><path d="M109.436 138.546L79.1355 138.546C78.8454 138.546 78.5967 138.302 78.5967 138.017L78.5967 136.309C78.5967 136.024 78.8454 135.78 79.1355 135.78L109.477 135.78C109.768 135.78 110.016 136.024 110.016 136.309L110.016 138.017C109.975 138.302 109.768 138.546 109.436 138.546Z" fill="#E1DFDD"></path><path d="M104.338 111.765L74.1275 111.765C73.8382 111.765 73.5903 111.284 73.5903 110.722L73.5903 107.354C73.5903 106.792 73.8383 106.311 74.1276 106.311L104.379 106.311C104.669 106.311 104.917 106.792 104.917 107.354L104.916 110.722C104.875 111.284 104.669 111.765 104.338 111.765Z" fill="#C8C6C4"></path><path d="M95.0932 118.212L83.3989 118.212C83.2869 118.212 83.1909 117.95 83.1909 117.643L83.1909 115.806C83.1909 115.5 83.2869 115.237 83.3989 115.237L95.1092 115.237C95.2212 115.237 95.3172 115.5 95.3172 115.806L95.3172 117.643C95.3012 117.95 95.2212 118.212 95.0932 118.212Z" fill="#C8C6C4"></path><path d="M98.8665 142.694L79.136 142.694C78.8458 142.694 78.5971 142.45 78.5971 142.165L78.5972 140.457C78.5972 140.172 78.8459 139.928 79.136 139.928L98.908 139.928C99.1981 139.928 99.4468 140.172 99.4468 140.457L99.4468 142.165C99.4054 142.45 99.1567 142.694 98.8665 142.694Z" fill="#E1DFDD"></path><path d="M72.2547 159.045C74.5898 159.045 76.4827 157.187 76.4827 154.896C76.4828 152.605 74.5899 150.747 72.2548 150.747C69.9198 150.747 68.0268 152.605 68.0268 154.896C68.0268 157.187 69.9197 159.045 72.2547 159.045Z" fill="#F7B548"></path><path d="M109.435 154.002L79.135 154.002C78.8449 154.002 78.5962 153.758 78.5962 153.473L78.5962 151.765C78.5962 151.48 78.8449 151.236 79.1351 151.236L109.477 151.236C109.767 151.236 110.016 151.48 110.016 151.765L110.016 153.473C109.974 153.758 109.767 154.002 109.435 154.002Z" fill="#E1DFDD"></path><path d="M98.8665 158.151L79.136 158.151C78.8458 158.151 78.5971 157.907 78.5971 157.622L78.5972 155.914C78.5972 155.629 78.8459 155.385 79.136 155.385L98.908 155.385C99.1981 155.385 99.4468 155.629 99.4468 155.914L99.4468 157.622C99.4054 157.907 99.1567 158.151 98.8665 158.151Z" fill="#E1DFDD"></path><path d="M110.057 173.81L67.9432 173.81C66.8654 173.81 65.9535 172.956 65.9535 171.858L65.9536 164.292L112.047 164.292L112.047 171.858C112.047 172.956 111.176 173.81 110.057 173.81Z" fill="#EAE9E8"></path><path d="M105.8 95.0015H112.206C112.206 95.0015 117.496 94.8145 121.342 98.6606C125.188 102.507 125 107.795 125 107.795L125 114.205C125 114.205 125.186 119.493 121.34 123.339C117.493 127.186 112.203 126.999 112.203 126.999H105.797C105.797 126.999 100.507 127.186 96.6608 123.339C92.8151 119.493 93.0026 114.205 93.0026 114.205L93.0032 107.795C93.0032 107.795 92.8167 102.507 96.6632 98.6606C100.51 94.8145 105.8 95.0015 105.8 95.0015Z" fill="#4863C7"></path><path d="M110.719 118.084C110.719 119.032 109.95 119.8 109.001 119.8C108.053 119.8 107.284 119.032 107.284 118.084C107.284 117.136 108.053 116.368 109.002 116.368C109.95 116.368 110.719 117.136 110.719 118.084Z" fill="white"></path><path fill-rule="evenodd" clip-rule="evenodd" d="M108.918 100.92C107.971 100.92 107.203 101.679 107.203 102.616L107.203 103.022C105.558 103.489 104.256 104.612 103.71 106.033C103.053 107.462 102.805 109.792 102.753 111.129C101.527 111.958 100.662 113.211 100.415 114.651L117.589 114.651C117.331 113.143 116.394 111.84 115.075 111.015C115.014 109.663 114.763 107.421 114.125 106.032C113.579 104.61 112.277 103.487 110.632 103.019L110.632 102.616C110.632 101.68 109.864 100.921 108.918 100.92Z" fill="white"></path><ellipse rx="1.81333" ry="1.81333" transform="matrix(1 -1.37713e-08 -9.38038e-05 1 109.001 118.04)" fill="#78B0EF"></ellipse></svg>