<svg xmlns="http://www.w3.org/2000/svg" xmlns:xlink="http://www.w3.org/1999/xlink" viewBox="0 0 280 200"><g style="isolation:isolate"><g id="e2bf2692-2bfa-426b-90a0-108ebb08279f" data-name="Layer 1"><path d="M116.75,28.4C107.3,22.54,83.59,18,68.63,26.21,52.84,34.88,41,50.77,36.37,70.66c-2.8,11.93-1.67,30,1.46,41.1C45.33,138.27,67,168,103.4,178.64c35.77,10.5,78.18,2.65,88.32-2.21,17.67-8.47,25.06-17.51,30.06-24.44,19.39-26.84-7-45.88-16.59-49.51-13.59-5.15-36.18-15-50.58-22.61C141.44,72.86,129.63,36.41,116.75,28.4Z" fill="#a7cbf6"></path><rect x="76.73" y="13.66" width="112.86" height="172.69" rx="4.32" fill="#e1dfdd"></rect><path d="M177.39,33.71a1.24,1.24,0,0,1-.44-.11.8.8,0,0,1-.33-.77l.28-1.77-1.22-1.27a.68.68,0,0,1-.16-.77.8.8,0,0,1,.6-.5l1.72-.27.77-1.6a.74.74,0,0,1,1-.39c.17,0,.28.22.39.39l.77,1.6,1.72.27a.8.8,0,0,1,.6.5.77.77,0,0,1-.16.77l-1.22,1.27.28,1.77a.75.75,0,0,1-.33.77.78.78,0,0,1-.78.06l-1.49-.83-1.49.83A1.88,1.88,0,0,1,177.39,33.71Zm1.88-6.95a.26.26,0,0,0-.16.11l-.89,1.87-2,.34a.12.12,0,0,0-.11.11.32.32,0,0,0,.06.22l1.44,1.49-.34,2.1s0,.16.06.16a.09.09,0,0,0,.16,0l1.83-1,1.82,1c.06.06.11,0,.17,0s.11-.11.05-.16L181,30.9l1.44-1.49c.05-.06.05-.11.05-.22a.11.11,0,0,0-.11-.11l-2-.34-.88-1.87C179.38,26.81,179.33,26.76,179.27,26.76Z" fill="#fff"></path><path d="M87.16,33.74A3.78,3.78,0,1,1,90.93,30,3.76,3.76,0,0,1,87.16,33.74Zm0-7a3.12,3.12,0,1,0,3.11,3.12A3.13,3.13,0,0,0,87.16,26.79Z" fill="#fff"></path><rect x="95.93" y="27.14" width="73.25" height="5.66" rx="2.83" fill="#fff"></rect><path d="M87.39,50.56a.34.34,0,0,1-.68,0v-.35a.34.34,0,1,1,.68,0Zm-.34,5.14A2.06,2.06,0,1,0,85,53.64,2.06,2.06,0,0,0,87.05,55.7Zm0-3.43a1.37,1.37,0,1,1-1.37,1.37A1.37,1.37,0,0,1,87.05,52.27Zm0,5.14a.34.34,0,0,0,.34-.34v-.34a.34.34,0,1,0-.68,0v.34A.34.34,0,0,0,87.05,57.41ZM90.14,54a.34.34,0,1,1,0-.68h.34a.34.34,0,0,1,0,.68Zm-6.86-.34a.34.34,0,0,0,.34.34H84a.34.34,0,0,0,0-.68h-.35A.34.34,0,0,0,83.28,53.64Zm6.2-1.94a.34.34,0,0,1-.49,0,.34.34,0,0,1,0-.48l.24-.25a.35.35,0,0,1,.49.49Zm-5.09,4.61a.34.34,0,0,0,.48,0l.24-.25a.33.33,0,0,0,0-.48.34.34,0,0,0-.48,0l-.24.24A.34.34,0,0,0,84.39,56.31Zm4.6-.25a.34.34,0,0,1,0-.48.36.36,0,0,1,.49,0l.24.24a.35.35,0,0,1-.49.49ZM84.39,51a.34.34,0,0,0,0,.49l.24.24a.34.34,0,1,0,.48-.48L84.87,51A.34.34,0,0,0,84.39,51Z" fill="#fff" fill-rule="evenodd"></path><rect x="95.93" y="50.81" width="87.2" height="5.66" rx="2.83" fill="#fff"></rect><path d="M89.37,69.48a.6.6,0,0,1,.42.57.61.61,0,0,1-.61.61h-1a1.15,1.15,0,0,1-2.28,0h-1a.61.61,0,0,1-.19-1.18V67.82a2.32,2.32,0,0,1,1.54-2.18.8.8,0,0,1,1.56,0,2.32,2.32,0,0,1,1.54,2.18v1.66Zm-1.56,1.18H86.29a.79.79,0,0,0,.76.59.78.78,0,0,0,.76-.59Zm1.37-.84a.18.18,0,0,1-.18-.18V67.82A2,2,0,0,0,87.61,66c-.14,0-.15-.14-.15-.25s-.21-.31-.41-.31-.41.08-.41.31,0,.21-.13.25a1.94,1.94,0,0,0-1.4,1.86v1.82a.19.19,0,0,1-.19.18.24.24,0,0,0-.23.23.23.23,0,0,0,.23.23h4.26a.23.23,0,0,0,.23-.23.23.23,0,0,0-.23-.23Z" fill="#fff" fill-rule="evenodd"></path><rect x="95.93" y="65.5" width="87.2" height="5.66" rx="2.83" fill="#fff"></rect><path d="M88.82,79.74h1.06V85H84.22v-5.3h1.06v-.35h.36v.35h2.83v-.35h.35Zm.71,5V81.15h-5v3.54Zm0-3.89v-.71h-.71v.36h-.35v-.36H85.64v.36h-.36v-.36h-.7v.71Z" fill="#fff"></path><rect x="95.93" y="79.39" width="87.2" height="5.66" rx="2.83" fill="#fff"></rect><path d="M89.5,95.59a.21.21,0,0,1,.12,0l0,0h0a1.91,1.91,0,0,1,.42,1.19,1.88,1.88,0,0,1-1.8,1.88H85.81l.62.62a.2.2,0,0,1,0,.25l0,0a.18.18,0,0,1-.24,0l0,0-1-.94a.2.2,0,0,1,0-.24l0,0,1-.94a.19.19,0,0,1,.26,0,.18.18,0,0,1,0,.24l0,0-.61.61h2.36a1.52,1.52,0,0,0,1.18-2.46.16.16,0,0,1,0-.12A.19.19,0,0,1,89.5,95.59Zm-1.83-1.51a.19.19,0,0,1,.24,0l0,0,.94.94,0,0a.22.22,0,0,1,0,.22l0,0-.94,1,0,0a.2.2,0,0,1-.21,0l0,0,0,0a.2.2,0,0,1,0-.21l0,0,.62-.62H85.92a1.51,1.51,0,0,0-1.17,2.46.16.16,0,0,1,0,.12.18.18,0,0,1-.19.18.2.2,0,0,1-.15-.07A1.9,1.9,0,0,1,85.84,95H88.3l-.63-.63,0,0A.19.19,0,0,1,87.67,94.08Z" fill="#fff"></path><rect x="95.93" y="94.02" width="87.2" height="5.66" rx="2.83" fill="#fff"></rect><rect x="95.93" y="36.22" width="29.25" height="5.66" rx="2.83" fill="#fff"></rect><rect x="67.04" y="107.14" width="135.12" height="59.15" rx="4.14" fill="#f2f1f0"></rect><rect x="72.7" y="111.76" width="123.28" height="13.39" rx="6.69" fill="#fff"></rect><rect x="127.23" y="115.29" width="0.31" height="6.22" rx="0.15" fill="#e1dfdd"></rect><ellipse cx="80.17" cy="132.27" rx="2.89" ry="3" fill="#ffd590"></ellipse><rect x="86.4" y="129.44" width="58.31" height="5.65" rx="2.82" fill="#e1dfdd"></rect><ellipse cx="80.17" cy="145.04" rx="2.89" ry="3" fill="#72acf1"></ellipse><rect x="86.4" y="142.22" width="29.16" height="5.65" rx="2.82" fill="#e1dfdd"></rect><ellipse cx="80.17" cy="157.82" rx="2.89" ry="3" fill="#77d672"></ellipse><rect x="86.4" y="154.99" width="42.38" height="5.65" rx="2.82" fill="#e1dfdd"></rect><ellipse cx="91.3" cy="118.45" rx="2.89" ry="3" fill="#6ad4d7"></ellipse><rect x="97.53" y="115.62" width="27.44" height="5.65" rx="2.82" fill="#e1dfdd"></rect><path d="M81.1,117.66a.41.41,0,0,1-.16,0,.38.38,0,0,1-.13-.09.57.57,0,0,1-.08-.13.45.45,0,0,1,0-.16.47.47,0,0,1,0-.17.57.57,0,0,1,.08-.13.38.38,0,0,1,.13-.09.41.41,0,0,1,.16,0,.37.37,0,0,1,.15,0,.44.44,0,0,1,.22.22.47.47,0,0,1,0,.17.45.45,0,0,1,0,.16.44.44,0,0,1-.22.22A.37.37,0,0,1,81.1,117.66Zm-1.41-1.87H82.5v2.91L79.29,122l-2.81-2.92Zm2.41,2.74V116.2H79.86L77,119.12l2.25,2.33Z" fill="#bebbb8"></path><polygon points="232.93 153.81 237.53 166.15 239.33 159.93 245.23 158.09 232.93 153.81" fill="#b2aeaa"></polygon></g></g></svg>