<svg focusable="false" aria-hidden="true" width="28" height="28" viewBox="0 0 28 28" xmlns="http://www.w3.org/2000/svg"><path d="M20.894 13.367c-.758 3.958-5.339 6.566-6.582 7.209a.663.663 0 0 1-.623 0c-1.244-.643-5.825-3.251-6.583-7.209-.459-2.395 1.13-4.854 3.566-4.963A3.84 3.84 0 0 1 14 10.046a3.843 3.843 0 0 1 3.328-1.642c2.436.11 4.025 2.568 3.566 4.963M14 0C6.27 0 0 6.268 0 14c0 2.862.862 5.519 2.335 7.736l-.879 3.078a1.4 1.4 0 0 0 1.732 1.731l3.077-.88A13.926 13.926 0 0 0 14 28c7.732 0 14-6.268 14-14S21.732 0 14 0" fill="#C82D23" fill-rule="evenodd"></path></svg>