<svg viewBox="0 0 512 512" xml:space="preserve" xmlns="http://www.w3.org/2000/svg" enable-background="new 0 0 512 512"><path d="M442.375 62.851c-20.31 0-37.075 15.552-39.155 35.438l-289.494 95.466h-16.94c-2.321-6.587-8.578-11.318-15.911-11.318-9.305 0-16.875 7.616-16.875 16.976v113.174c0 9.36 7.57 16.976 16.875 16.976 7.333 0 13.585-4.732 15.908-11.318h16.943l33.898 11.179-1.752 5.377c-8.695 26.684 5.811 55.51 32.336 64.258l42.762 14.1a50.448 50.448 0 0 0 15.822 2.56c7.835 0 15.62-1.852 22.813-5.516 12.065-6.144 21.03-16.646 25.241-29.574l1.753-5.376 116.62 38.458c2.08 19.886 18.845 35.438 39.156 35.438 3.106 0 5.625-2.533 5.625-5.659V68.51c0-3.126-2.518-5.659-5.625-5.659zM177.944 345.377l1.752-5.377 74.832 24.677-1.752 5.377c-1.404 4.31-4.392 7.81-8.414 9.858a16.669 16.669 0 0 1-12.878.985l-42.761-14.1c-4.284-1.413-7.763-4.419-9.799-8.464a16.957 16.957 0 0 1-.98-12.956zm-57.694-36.89V203.513L403 110.271v291.457l-282.75-93.241zM86.5 222.048v90.539c0 3.12-2.523 5.658-5.625 5.658s-5.625-2.538-5.625-5.658V199.413c0-3.12 2.523-5.658 5.625-5.658s5.625 2.538 5.625 5.658c0 3.126 2.518 5.659 5.625 5.659H109v101.856H97.75v-84.88c0-3.126-2.518-5.659-5.625-5.659s-5.625 2.533-5.625 5.659zm187.656 155.057c-3.276 10.054-10.248 18.223-19.632 23.001s-20.056 5.597-30.05 2.3l-42.76-14.101c-20.632-6.804-31.915-29.224-25.151-49.978l1.752-5.378 10.69 3.526-1.752 5.377c-2.34 7.182-1.76 14.85 1.633 21.592 3.393 6.743 9.193 11.753 16.332 14.107l42.761 14.1a28.029 28.029 0 0 0 8.79 1.423c4.353 0 8.678-1.03 12.675-3.065 6.702-3.413 11.682-9.248 14.022-16.43l1.752-5.377 10.69 3.526-1.752 5.377zm162.594 60.159c-12.821-2.63-22.5-14.063-22.5-27.726V102.462c0-13.663 9.679-25.096 22.5-27.726v362.528z" fill="#ffffff" class="fill-000000"></path></svg>